<svg version="1.1" xmlns="http://www.w3.org/2000/svg" xmlns:xlink="http://www.w3.org/1999/xlink" x="0px" y="0px" viewBox="0 0 1000 1000" enable-background="new 0 0 1000 1000" xml:space="preserve">
<metadata> Svg Vector Icons : http://www.onlinewebfonts.com/icon </metadata>
  <g><path d="M500,132.5c-22.5,0-41.8,8-57.7,23.9c-16,16-23.9,35.2-23.9,57.7v81.7H398v-59.4c0-20.4-6.8-37.8-20.4-52c-13.6-14.3-30.6-21.4-51-21.4c-19.5,0-36.3,7-50.4,21.1c-14,14-21.1,30.8-21.1,50.4v273.7l-20.4-19.1V379.3c0-20.4-6.8-37.8-20.4-52c-13.6-14.3-30.6-21.4-51-21.4c-19.5,0-36.3,7-50.4,21.1c-14,14-21.1,30.8-21.1,50.4v142.9c0,20,7.4,37.4,22.3,52.3l197.8,188.9c16.6,16.6,24.9,38.3,24.9,65.1c0,11.1,4,20.6,12.1,28.7c8.1,8.1,17.6,12.1,28.7,12.1h408.3c11.1,0,20.6-4,28.7-12.1c8.1-8.1,12.1-17.6,12.1-28.7v-15.9c0-17.4,2.1-33.8,6.4-49.2L902,483.4c4.2-15.3,6.4-31.7,6.4-49.2v-157c0-20.4-6.8-37.8-20.4-52c-13.6-14.3-30.6-21.4-51-21.4c-19.5,0-36.3,7-50.4,21.1c-14,14-21.1,30.8-21.1,50.4v20.4H745v-79.8c0-17-5.3-32.4-15.9-46.2c-10.6-13.8-24.2-22.4-40.8-25.8c-5.9-0.9-10.8-1.3-14.7-1.3c-19.5,0-36.3,7-50.4,21.1c-14,14-21.1,30.8-21.1,50.4v81.7h-20.4v-77.8c0-21.7-6.9-40.7-20.7-57.1c-13.8-16.4-31.4-25.6-52.7-27.8C506.2,132.6,503.4,132.4,500,132.5L500,132.5z M500,50.8c35.7,0,67.4,10.6,95.1,31.9C619.3,68.3,645.5,61,673.6,61c25.1,0,48.7,5.7,70.8,17.2c22.1,11.5,40.4,27.7,54.9,48.5c11.5-3,24-4.5,37.6-4.5c42.5,0,78.7,15.2,108.4,45.6c29.8,30.4,44.7,66.9,44.7,109.4v157c0,21.7-2.8,44.6-8.3,68.9l-69.6,278.1c-2.6,10.2-3.8,25.3-3.8,45.3c0,34-11.9,62.9-35.8,86.7c-23.8,23.8-52.8,35.7-86.7,35.8H377.5c-35.7,0-65.1-12.4-88-37.3C266.5,887,255,856.7,255,821L58.5,632.1C26.2,601.1,10,563.8,10,520.5V377.6c0-42.1,15-78.1,45-108.1c30-30,66-45,108.1-45c4.7,0,8.1,0.2,10.2,0.7c2.6-40.4,18.6-74.4,48.2-102.1c29.6-27.7,64.5-41.5,104.9-41.5c22.1,0,43,4.5,62.6,13.4C419.6,65.6,456.6,50.9,500,50.8L500,50.8z"></path></g></svg>
